,
Brought to you by  http://www.scenetime.com/signup.php
 
 Hottest scene tracker on the net !!!   
 
No fake torrents from scenebalance 
shame on those who comment fake before downloading my torrents

    seed back for speed


 



...................................NFO:.................................................
                   _..._                          _..._    
                .-'_..._''.                    .-'_..._''.  
        .--.  .' .'      '.\                 .' .'      '.\
        |__| / .'                           / .'            
    .|  .--.. '               .|           . '              
  .' |_ |  || |             .' |_     __   | |              
.'     ||  || |           .'     | .:--.'. | |              
'--.  .-'|  |. '          '--.  .-'/ |   \ |. '              
  |  |  |  | \ '.          .|  |  `" __ | | \ '.          .
  |  |  |__|  '. `._____.-'/|  |   .'.''| |  '. `._____.-'/
  |  '.'        `-.______ / |  '.'/ /   | |_   `-.______ /  
  |   /                  `  |   / \ \._,\ '/            `  
  `'-'                      `'-'   `--'  `"                

_____ _____  ____   ____  ____  __  _  _____  ____
| ()_)| () )| ===| (_ (_`| ===||  \| ||_   _|(_ (_`
|_|   |_|\_\|____|.__)__)|____||_|\__|  |_| .__)__)


In Harms Way 1965 DVDRip TicTac


 
http://www.imdb.com/title/tt0059309/

Captain Rockwell Torrey and Commander Paul Eddington are part of the Navy's effort to recuperate from, and retaliate for, the Japanese attack on Pearl Harbor. Torrey is romantically involved with nurse Maggie Haynes, and also tries to restore his relationship with his estranged son, Jeremiah, a young Naval officer.

    7.1/10 

 
Cast
Cast overview, first billed only:
John Wayne 	John Wayne 	... 	
Capt. Rockwell Torrey
Kirk Douglas 	Kirk Douglas 	... 	
Cmdr. Paul Eddington Jr.
Patricia Neal 	Patricia Neal 	... 	
Lt. Maggie Haynes
Tom Tryon 	Tom Tryon 	... 	
Mac McConnell
Paula Prentiss 	Paula Prentiss 	... 	
Beverly McConnell
Brandon De Wilde 	Brandon De Wilde 	... 	
Ens. Jeremiah 'Jere' Torrey
Jill Haworth 	Jill Haworth 	... 	
Ens. Annalee Dorne
Dana Andrews 	Dana Andrews 	... 	
Adm. Broderick
Stanley Holloway 	Stanley Holloway 	... 	
Clayton Canfil
Burgess Meredith 	Burgess Meredith 	... 	
Cmdr. Egan Powell
Franchot Tone 	Franchot Tone 	... 	
Adm. Husband E. Kimmel
Patrick O'Neal 	Patrick O'Neal 	... 	
Cmdr. Neal Owynn
Carroll O'Connor 	Carroll O'Connor 	... 	
Lt. Cmdr. Burke
Slim Pickens 	Slim Pickens 	... 	
C.P.O Culpepper
James Mitchum 	James Mitchum 	... 	


Genres:
Drama | War

Details
Country:
USA
Language:
English
Release Date:
6 April 1965 (USA)

Runtime:
165 min

Color:
Black and White 


OK CAN'T WRONG WITH THIS CAST

John Wayne
Kirk Douglas
Patricia Neal 	
Burgess Meredith  	
Carroll O'Connor
Slim Pickens 	
James Mitchum


General
Complete name                    : G:\In Harms Way 1965 DVDRip TicTac\In Harms Way 1965 DVDRip TicTac.avi
Format                           : AVI
Format/Info                      : Audio Video Interleave
File size                        : 1.91 GiB
Duration                         : 2h 40mn
Overall bit rate                 : 1 704 Kbps
Writing application              : Lavf52.13.0
Writing library                  : VirtualDub build 32842/release

Video
ID                               : 0
Format                           : MPEG-4 Visual
Format profile                   : Simple@L1
Format settings, BVOP            : No
Format settings, QPel            : No
Format settings, GMC             : No warppoints
Format settings, Matrix          : Default (H.263)
Codec ID                         : XVID
Codec ID/Hint                    : XviD
Duration                         : 2h 40mn
Bit rate                         : 1 500 Kbps
Width                            : 720 pixels
Height                           : 432 pixels
Display aspect ratio             : 16:9
Frame rate                       : 25.000 fps
Resolution                       : 8 bits
Colorimetry                      : 4:2:0
Scan type                        : Progressive
Bits/(Pixel*Frame)               : 0.193
Stream size                      : 1.68 GiB (88%)
Writing library                  : Lavc51.54.0

Audio
ID                               : 1
Format                           : MPEG Audio
Format version                   : Version 1
Format profile                   : Layer 3
Mode                             : Joint stereo
Format_Settings_ModeExtension    : MS Stereo
Codec ID                         : 55
Codec ID/Hint                    : MP3
Duration                         : 2h 40mn
Bit rate mode                    : Constant
Bit rate                         : 192 Kbps
Channel(s)                       : 2 channels
Sampling rate                    : 44.1 KHz
Stream size                      : 221 MiB (11%)
Alignment                        : Aligned on interleaves
Interleave, duration             : 26 ms (0.65 video frame)
Interleave, preload duration     : 522 ms
Writing library                  : LAME3.98 (beta)